<svg width="19" height="17" viewBox="0 0 19 17" fill="none" xmlns="http://www.w3.org/2000/svg">
<path fill-rule="evenodd" clip-rule="evenodd" d="M0.75 8.49992C0.75 8.79 0.865234 9.0682 1.07035 9.27332C1.27547 9.47843 1.55367 9.59367 1.84375 9.59367H14.5159L9.81937 14.288C9.71768 14.3897 9.63701 14.5105 9.58198 14.6433C9.52694 14.7762 9.49862 14.9186 9.49862 15.0624C9.49862 15.2062 9.52694 15.3486 9.58198 15.4815C9.63701 15.6144 9.71768 15.7351 9.81937 15.8368C9.92107 15.9385 10.0418 16.0191 10.1747 16.0742C10.3075 16.1292 10.4499 16.1575 10.5937 16.1575C10.7376 16.1575 10.88 16.1292 11.0128 16.0742C11.1457 16.0191 11.2664 15.9385 11.3681 15.8368L17.9306 9.27429C18.0325 9.17269 18.1133 9.05199 18.1684 8.91911C18.2236 8.78623 18.252 8.64378 18.252 8.49992C18.252 8.35605 18.2236 8.2136 18.1684 8.08072C18.1133 7.94784 18.0325 7.82714 17.9306 7.72554L11.3681 1.16304C11.1627 0.957665 10.8842 0.842285 10.5937 0.842285C10.3033 0.842285 10.0248 0.957665 9.81937 1.16304C9.614 1.36842 9.49862 1.64697 9.49862 1.93742C9.49862 2.22786 9.614 2.50642 9.81937 2.71179L14.5159 7.40617H1.84375C1.55367 7.40617 1.27547 7.5214 1.07035 7.72652C0.865234 7.93164 0.75 8.20984 0.75 8.49992Z" fill="white"/>
</svg>
